<?xml version="1.0" encoding="UTF-8"?>
<svg id="Layer_1" data-name="Layer 1" xmlns="http://www.w3.org/2000/svg" viewBox="0 0 505.58 104.38">
  <defs>
    <style>
      .cls-1 {
        fill: #eee3ce;
      }
    </style>
  </defs>
  <g>
    <path class="cls-1" d="M162.71,25.8l-1.6-4.38h-11.34l-1.6,4.38h-5.94L152.05.42h6.77l9.78,25.39h-5.9ZM155.44,5.1l-4.22,11.65h8.41l-4.19-11.65Z"/>
    <path class="cls-1" d="M172.27,13.13c0-7.8,5.9-13.13,13.32-13.13,5.79,0,9.02,3.04,10.81,6.2l-4.64,2.28c-1.07-2.06-3.35-3.69-6.17-3.69-4.42,0-7.76,3.54-7.76,8.34s3.35,8.34,7.76,8.34c2.82,0,5.1-1.6,6.17-3.69l4.64,2.25c-1.83,3.16-5.02,6.24-10.81,6.24-7.42,0-13.32-5.33-13.32-13.13Z"/>
    <path class="cls-1" d="M209.32,25.8V5.18h-7.42V.42h20.25v4.76h-7.38v20.63h-5.44Z"/>
    <path class="cls-1" d="M229.41,25.8V.42h5.4v25.39h-5.4Z"/>
    <path class="cls-1" d="M255.68,0c7.69,0,13.28,5.48,13.28,13.13s-5.59,13.13-13.28,13.13-13.25-5.48-13.25-13.13,5.59-13.13,13.25-13.13ZM255.68,4.8c-4.68,0-7.69,3.58-7.69,8.34s3.01,8.34,7.69,8.34,7.72-3.62,7.72-8.34-3.04-8.34-7.72-8.34Z"/>
    <path class="cls-1" d="M294.1,25.8l-12.1-17.05v17.05h-5.4V.42h5.56l11.76,16.44V.42h5.4v25.39h-5.21Z"/>
    <path class="cls-1" d="M322.92,18.12c1.79,1.87,4.57,3.43,8.07,3.43,2.97,0,4.42-1.41,4.42-2.86,0-1.9-2.21-2.55-5.14-3.24-4.15-.95-9.48-2.09-9.48-7.76,0-4.22,3.65-7.65,9.63-7.65,4.04,0,7.38,1.22,9.9,3.54l-3.01,3.96c-2.06-1.9-4.8-2.78-7.27-2.78s-3.73,1.07-3.73,2.59c0,1.71,2.13,2.25,5.06,2.93,4.19.95,9.52,2.21,9.52,7.84,0,4.64-3.31,8.14-10.16,8.14-4.87,0-8.37-1.64-10.77-4.03l2.97-4.11Z"/>
    <path class="cls-1" d="M348.35,25.8V.42h11.88c5.52,0,8.52,3.73,8.52,8.18s-3.04,8.11-8.52,8.11h-6.47v9.1h-5.4ZM359.5,5.06h-5.75v7h5.75c2.13,0,3.73-1.37,3.73-3.5s-1.6-3.5-3.73-3.5Z"/>
    <path class="cls-1" d="M387.94,0c7.69,0,13.28,5.48,13.28,13.13s-5.59,13.13-13.28,13.13-13.25-5.48-13.25-13.13,5.59-13.13,13.25-13.13ZM387.94,4.8c-4.68,0-7.69,3.58-7.69,8.34s3.01,8.34,7.69,8.34,7.72-3.62,7.72-8.34-3.04-8.34-7.72-8.34Z"/>
    <path class="cls-1" d="M423.2,25.8l-4.99-9.1h-3.96v9.1h-5.4V.42h11.88c5.29,0,8.52,3.46,8.52,8.18s-2.82,6.89-5.56,7.54l5.71,9.67h-6.2ZM419.92,5.06h-5.67v7h5.67c2.17,0,3.81-1.37,3.81-3.5s-1.64-3.5-3.81-3.5Z"/>
    <path class="cls-1" d="M442.62,25.8V5.18h-7.42V.42h20.25v4.76h-7.38v20.63h-5.44Z"/>
    <path class="cls-1" d="M463.67,18.12c1.79,1.87,4.57,3.43,8.07,3.43,2.97,0,4.42-1.41,4.42-2.86,0-1.9-2.21-2.55-5.14-3.24-4.15-.95-9.48-2.09-9.48-7.76,0-4.22,3.65-7.65,9.63-7.65,4.04,0,7.38,1.22,9.9,3.54l-3.01,3.96c-2.06-1.9-4.8-2.78-7.27-2.78s-3.73,1.07-3.73,2.59c0,1.71,2.13,2.25,5.06,2.93,4.19.95,9.52,2.21,9.52,7.84,0,4.64-3.31,8.14-10.16,8.14-4.87,0-8.37-1.64-10.77-4.03l2.97-4.11Z"/>
    <path class="cls-1" d="M146.15,63.8c1.79,1.87,4.57,3.43,8.07,3.43,2.97,0,4.42-1.41,4.42-2.86,0-1.9-2.21-2.55-5.14-3.24-4.15-.95-9.48-2.09-9.48-7.76,0-4.22,3.65-7.65,9.63-7.65,4.04,0,7.38,1.22,9.9,3.54l-3.01,3.96c-2.06-1.9-4.8-2.78-7.27-2.78s-3.73,1.07-3.73,2.59c0,1.71,2.13,2.25,5.06,2.93,4.19.95,9.52,2.21,9.52,7.84,0,4.64-3.31,8.14-10.16,8.14-4.87,0-8.37-1.64-10.77-4.03l2.97-4.11Z"/>
    <path class="cls-1" d="M189.09,71.49l-1.6-4.38h-11.34l-1.6,4.38h-5.94l9.82-25.39h6.77l9.78,25.39h-5.9ZM181.82,50.79l-4.22,11.65h8.41l-4.19-11.65Z"/>
    <path class="cls-1" d="M201.17,71.49v-25.39h17.96v4.64h-12.56v5.52h12.29v4.64h-12.29v10.58h-5.4Z"/>
    <path class="cls-1" d="M226.71,71.49v-25.39h17.96v4.64h-12.56v5.52h12.29v4.64h-12.29v5.9h12.56v4.68h-17.96Z"/>
    <path class="cls-1" d="M258.58,71.49v-20.63h-7.42v-4.76h20.25v4.76h-7.38v20.63h-5.44Z"/>
    <path class="cls-1" d="M285.76,71.49v-10.39l-9.78-15h6.17l6.32,10.2,6.24-10.2h6.17l-9.7,15v10.39h-5.4Z"/>
    <path class="cls-1" d="M320.6,71.49v-25.39h11.88c5.52,0,8.52,3.73,8.52,8.18s-3.04,8.11-8.52,8.11h-6.47v9.1h-5.4ZM331.75,50.75h-5.75v7h5.75c2.13,0,3.73-1.37,3.73-3.5s-1.6-3.5-3.73-3.5Z"/>
    <path class="cls-1" d="M362.51,71.49l-4.99-9.1h-3.96v9.1h-5.4v-25.39h11.88c5.29,0,8.52,3.46,8.52,8.18s-2.82,6.89-5.56,7.54l5.71,9.67h-6.2ZM359.24,50.75h-5.67v7h5.67c2.17,0,3.81-1.37,3.81-3.5s-1.64-3.5-3.81-3.5Z"/>
    <path class="cls-1" d="M388.48,45.69c7.69,0,13.28,5.48,13.28,13.13s-5.59,13.13-13.28,13.13-13.25-5.48-13.25-13.13,5.59-13.13,13.25-13.13ZM388.48,50.48c-4.68,0-7.69,3.58-7.69,8.34s3.01,8.34,7.69,8.34,7.72-3.62,7.72-8.34-3.04-8.34-7.72-8.34Z"/>
    <path class="cls-1" d="M408.7,65.32c.99.95,2.28,1.83,4.03,1.83,2.4,0,3.96-1.6,3.96-4.07v-16.97h5.4v17.05c0,6.01-3.73,8.79-8.94,8.79-2.59,0-4.99-.68-6.81-2.47l2.36-4.15Z"/>
    <path class="cls-1" d="M430.93,71.49v-25.39h17.96v4.64h-12.56v5.52h12.29v4.64h-12.29v5.9h12.56v4.68h-17.96Z"/>
    <path class="cls-1" d="M455.72,58.82c0-7.8,5.9-13.13,13.32-13.13,5.79,0,9.02,3.04,10.81,6.2l-4.64,2.28c-1.07-2.06-3.35-3.69-6.17-3.69-4.42,0-7.76,3.54-7.76,8.34s3.35,8.34,7.76,8.34c2.82,0,5.1-1.6,6.17-3.69l4.64,2.25c-1.83,3.16-5.02,6.24-10.81,6.24-7.42,0-13.32-5.33-13.32-13.13Z"/>
    <path class="cls-1" d="M492.76,71.49v-20.63h-7.42v-4.76h20.25v4.76h-7.38v20.63h-5.44Z"/>
  </g>
  <g>
    <path class="cls-1" d="M52.63,35.3c-.11-.22-.23-.44-.34-.65l-.51.65c.06.12.12.23.18.35l.18.33.66-.35-.17-.32Z"/>
    <path class="cls-1" d="M79.4.15l-19.49,24.8L40.42.15,0,51.58l40.42,51.44,19.49-24.8,19.49,24.8,40.43-51.44L79.4.15ZM35,16.78c.77.94,1.17,1.85.93,3.29-.08.43-.19.87-.3,1.32-.22.86-.44,1.74-.46,2.69-.02.81.13,1.99.91,2.96.5.6,1.12.99,1.67,1.32l.25.15c4.73,2.95,7.52,8.83,8.32,13.72l-2.29,2.92c-.57-.99-1.11-2-1.52-3.06-.21-.53-.41-1.06-.6-1.6-.75-2.08-1.53-4.24-3.02-5.94-.95-1.09-2.14-1.93-3.3-2.73-.46-.32-.92-.65-1.37-.99-2.96-2.24-3.56-5.11-3.66-8.4l4.45-5.67ZM23.32,31.66c1.23,1.3,2.86,2.14,4.44,2.96.77.4,1.56.8,2.29,1.26,2.36,1.49,4.54,3.38,6.12,5.32.93,1.14,1.73,4.25.9,5.32-.36.47-1.06.47-2.08,0-1.19-.56-1.84-1.51-2.53-2.53-.23-.35-.47-.69-.74-1.04-1.81-2.37-4.24-3.89-6.82-4.27-2.69-.4-5.41.26-7.94,1.1l6.37-8.12ZM7.66,51.58l8.42-10.71c2.84-1.01,5.76-1.87,8.7-1.44,2.39.35,4.64,1.77,6.34,3.98.26.33.48.67.71,1,.71,1.05,1.46,2.14,2.84,2.78.66.32,1.2.44,1.63.44.69,0,1.11-.31,1.37-.64,1.09-1.41.21-4.9-.91-6.26-1.63-2.01-3.87-3.95-6.3-5.48-.74-.47-1.56-.89-2.35-1.29-1.55-.8-3.15-1.63-4.31-2.89l6.06-7.7c.2,3.07.99,5.88,3.92,8.1.45.35.92.67,1.39,1,1.11.78,2.26,1.59,3.16,2.61,1.4,1.6,2.15,3.68,2.88,5.7.2.54.4,1.09.6,1.63.47,1.2,1.08,2.33,1.73,3.42l-4.54,5.78,7.11,9.05c-.41.26-.9.44-1.44.54-3.51.61-9.65-1.87-15.42-10.84-.15-.23-.29-.46-.43-.68-.66-1.05-1.34-2.14-2.29-3-3.12-2.82-8.13-.7-10.72,1.42-2.2,1.8-3.88,4.48-4.83,7.7l-3.3-4.19ZM15.15,61.11l-3.62-4.6c.87-3.31,2.52-6.06,4.72-7.86,2.31-1.87,6.99-3.93,9.74-1.44.87.78,1.53,1.83,2.16,2.84.14.23.29.46.43.69,3.47,5.38,9.29,11.29,14.88,11.29.44,0,.87-.03,1.3-.11.68-.12,1.28-.35,1.78-.7l4.39,5.59c-2.74.03-5.3.61-7.53,1.12-2.71.61-5.05,1.14-6.58.48-2.3-.99-3.99-3.79-5.62-6.52-1.35-2.26-2.75-4.59-4.6-6.08l-.31-.25c-1.99-1.6-3.81-2.29-5.41-2.05-1.27.19-2.35.93-3.23,2.22-.77,1.14-1.27,2.39-1.76,3.6-.25.62-.48,1.21-.74,1.78ZM16.68,63.06c.53-.93.93-1.93,1.32-2.89.46-1.15.9-2.23,1.53-3.17.51-.75,1.06-1.16,1.69-1.25.94-.15,2.21.4,3.66,1.57l.31.25c1.53,1.24,2.78,3.3,4.09,5.49,1.81,3.02,3.69,6.15,6.67,7.43.81.35,1.69.49,2.63.49,1.61,0,3.39-.41,5.34-.85,2.73-.62,5.74-1.3,8.86-.99l2.01,2.56c-3.72-.05-7.31.37-10.96,1.24-.71.17-1.43.41-2.13.65-1.81.61-3.69,1.23-5.48.69-1.89-.58-3.48-2.33-4.67-3.79-.49-.61-.96-1.24-1.43-1.87-.8-1.07-1.62-2.17-2.54-3.16-1.42-1.51-3.53-3.48-5.47-3.08-1.81.38-2.33,2.2-2.82,3.98l-2.6-3.3ZM40.42,93.27l-5.13-6.52c.38.03.73.05,1.07.05,3.96,0,5.5-2.18,6.79-4,1.44-2.06,2.54-3.6,6.68-1.49l-9.4,11.97ZM50.3,80.71c-4.85-2.5-6.27-.47-7.77,1.66-1.41,1.99-2.99,4.24-7.9,3.54h0s-9.11-11.6-9.11-11.6c.38-.33.8-.5,1.23-.54,1.82-.16,3.95,2.11,5.85,4.12,1.44,1.52,2.79,2.95,3.97,3.32.28.09.53.13.78.13,1.22,0,2.16-.9,2.94-1.65.15-.14.29-.28.44-.41,1.35-1.21,2.83-1.92,4.53-2.14,1.63-.22,3.33-.08,4.96.05.9.08,1.81.15,2.73.17l-2.65,3.37ZM53.54,76.59c-1.09.02-2.18-.08-3.26-.16-1.68-.14-3.41-.29-5.12-.05-1.86.25-3.48,1.01-4.94,2.33-.15.14-.29.28-.45.42-.88.84-1.8,1.72-2.98,1.35-.99-.31-2.29-1.68-3.66-3.12-2.11-2.23-4.27-4.54-6.45-4.35-.59.05-1.14.29-1.64.7l-5.21-6.63c.05-.16.09-.32.14-.47.46-1.66.9-3.21,2.27-3.5,1.74-.37,4.01,2.06,4.76,2.86.9.96,1.71,2.04,2.49,3.09.47.63.95,1.27,1.45,1.89,1.25,1.54,2.95,3.4,5.03,4.03.56.17,1.12.25,1.69.25,1.44,0,2.86-.48,4.25-.94.71-.24,1.39-.47,2.07-.63,3.78-.91,7.52-1.31,11.38-1.21l.71.9-2.55,3.24ZM52.29,34.64c.11.22.23.44.34.65l.17.32-.66.35-.18-.33c-.06-.11-.12-.23-.18-.35l-3.64,4.63c-1.26-4.96-4.24-10.4-8.95-13.33l-.26-.16c-.44-.26-.85-.52-1.09-.82-.28-.35-.43-.87-.41-1.49.02-.7.2-1.42.39-2.18.12-.48.25-.98.33-1.5.44-2.54-.52-4.12-1.72-5.48l4-5.09,3.17,4.04h0c-.03.18-.07.35-.11.53-.12.57-.35,1.1-.59,1.66-.2.47-.41.95-.56,1.46-.96,3.37,1.25,5.08,3.38,6.73,1.23.95,2.5,1.93,3.13,3.22.46.92.73,1.94.99,2.93.11.41.22.83.35,1.24.38,1.29.99,2.47,1.58,3.61l.51-.65c-.54-1.05-1.04-2.06-1.37-3.17-.13-.4-.23-.81-.34-1.22-.27-1.02-.56-2.08-1.05-3.08-.71-1.44-2.05-2.48-3.34-3.48-2.11-1.63-3.94-3.05-3.12-5.92.14-.47.32-.91.52-1.37.23-.54.47-1.11.62-1.71l11.88,15.11-3.8,4.83ZM85.36,57.54v11.91h-11.91v-11.91h-11.91v-11.91h11.91v-11.91h11.91v11.91h11.91v11.91h-11.91Z"/>
  </g>
  <g>
    <path class="cls-1" d="M146.57,102.67c-1.04,0-1.87-.29-2.48-.88s-.91-1.38-.91-2.38h1.4c0,.62.18,1.11.54,1.47s.85.54,1.47.54,1.11-.18,1.47-.54c.36-.36.54-.85.54-1.47v-.7c0-.62-.18-1.11-.53-1.47s-.83-.54-1.43-.54h-3.09v-5.5h6.03v1.27h-4.73l.03,2.96h1.83c1.04,0,1.85.29,2.42.86.57.57.85,1.38.85,2.43v.7c0,1-.31,1.8-.92,2.38-.61.58-1.45.88-2.5.88Z"/>
    <path class="cls-1" d="M156.58,102.67c-1.04,0-1.87-.3-2.49-.91-.61-.61-.92-1.41-.92-2.43v-4.96c0-1.01.31-1.82.92-2.43.62-.61,1.44-.91,2.49-.91s1.87.3,2.49.91c.61.6.92,1.41.92,2.43v4.96c0,.67-.14,1.26-.42,1.76-.28.5-.67.89-1.19,1.16s-1.11.41-1.81.41ZM156.58,101.48c.62,0,1.12-.2,1.5-.6s.57-.91.57-1.54v-4.96c0-.63-.19-1.14-.57-1.54-.38-.4-.88-.6-1.5-.6s-1.12.2-1.5.6c-.38.4-.57.91-.57,1.54v4.96c0,.63.19,1.14.57,1.54s.88.6,1.5.6ZM156.58,97.71c-.28,0-.5-.08-.67-.23-.17-.15-.26-.38-.26-.67s.08-.49.26-.64c.17-.15.4-.23.67-.23s.5.08.67.23c.17.15.26.36.26.64s-.08.51-.26.67c-.17.16-.4.23-.67.23Z"/>
    <path class="cls-1" d="M163.25,102.52v-1.27h3.07v-8.84l-3.07,2.29v-1.6l2.56-1.91h1.91v10.05h2.51v1.27h-6.98Z"/>
    <path class="cls-1" d="M179.3,104.38c-1.48-.33-2.62-1.02-3.43-2.08s-1.22-2.38-1.22-3.97v-2.79c0-1.59.41-2.91,1.22-3.97.81-1.06,1.96-1.75,3.43-2.08v1.35c-.66.15-1.24.45-1.73.88-.49.43-.87.98-1.13,1.62-.26.65-.4,1.38-.4,2.19v2.79c0,.81.13,1.54.4,2.19s.64,1.19,1.13,1.63c.49.43,1.07.73,1.73.88v1.35Z"/>
    <path class="cls-1" d="M186.48,102.67c-1.03,0-1.85-.29-2.45-.87-.6-.58-.9-1.37-.9-2.39v-5.12c0-1.01.3-1.81.9-2.39s1.42-.87,2.45-.87,1.82.29,2.42.88c.6.58.9,1.38.9,2.38h-1.39c0-.64-.17-1.13-.5-1.48s-.81-.52-1.42-.52-1.09.17-1.43.52c-.35.35-.52.84-.52,1.48v5.12c0,.64.17,1.14.52,1.48.35.35.82.52,1.43.52s1.08-.17,1.42-.52c.34-.35.5-.84.5-1.48h1.39c0,1-.3,1.8-.9,2.38s-1.41.88-2.42.88Z"/>
    <path class="cls-1" d="M193.41,104.38v-1.35c.67-.15,1.25-.45,1.74-.88.49-.43.86-.98,1.13-1.63s.4-1.38.4-2.19v-2.79c0-.82-.13-1.55-.4-2.19-.26-.65-.64-1.19-1.13-1.62-.48-.43-1.06-.73-1.74-.88v-1.35c1.48.33,2.62,1.02,3.43,2.08.81,1.05,1.22,2.38,1.22,3.97v2.79c0,1.59-.41,2.92-1.22,3.97s-1.96,1.75-3.43,2.08Z"/>
    <path class="cls-1" d="M209.07,104.38c-1.48-.33-2.62-1.02-3.43-2.08s-1.22-2.38-1.22-3.97v-2.79c0-1.59.41-2.91,1.22-3.97.81-1.06,1.96-1.75,3.43-2.08v1.35c-.66.15-1.24.45-1.73.88-.49.43-.87.98-1.13,1.62-.26.65-.4,1.38-.4,2.19v2.79c0,.81.13,1.54.4,2.19s.64,1.19,1.13,1.63c.49.43,1.07.73,1.73.88v1.35Z"/>
    <path class="cls-1" d="M215.95,102.67c-1.04,0-1.87-.29-2.48-.88s-.91-1.38-.91-2.38h1.39c0,.62.18,1.11.54,1.47s.85.54,1.47.54,1.11-.18,1.47-.54.54-.85.54-1.47v-.78c0-.62-.18-1.11-.54-1.47-.36-.36-.85-.54-1.47-.54h-1.22v-1.21l2.78-2.95h-4.65v-1.27h6.23v1.3l-2.73,2.9c.93.07,1.66.4,2.2.97s.81,1.33.81,2.27v.78c0,1-.31,1.8-.92,2.38s-1.45.88-2.5.88Z"/>
    <path class="cls-1" d="M223.18,104.38v-1.35c.67-.15,1.25-.45,1.74-.88.49-.43.86-.98,1.13-1.63s.4-1.38.4-2.19v-2.79c0-.82-.13-1.55-.4-2.19-.26-.65-.64-1.19-1.13-1.62-.48-.43-1.06-.73-1.74-.88v-1.35c1.48.33,2.62,1.02,3.43,2.08.81,1.05,1.22,2.38,1.22,3.97v2.79c0,1.59-.41,2.92-1.22,3.97s-1.96,1.75-3.43,2.08Z"/>
    <path class="cls-1" d="M242.67,102.52v-11.32h3.64c1.06,0,1.89.3,2.52.91s.94,1.41.94,2.43-.31,1.82-.94,2.43c-.63.61-1.46.91-2.52.91h-2.25v4.65h-1.4ZM244.06,96.61h2.25c.61,0,1.1-.19,1.47-.57s.55-.88.55-1.51-.18-1.15-.55-1.52-.86-.56-1.47-.56h-2.25v4.16Z"/>
    <path class="cls-1" d="M255.82,102.67c-1.05,0-1.86-.29-2.42-.88-.56-.58-.84-1.38-.84-2.38v-8.22h1.39v8.22c0,.62.15,1.11.46,1.47.31.36.77.54,1.4.54s1.09-.18,1.4-.54c.31-.36.46-.85.46-1.47v-8.22h1.39v8.22c0,1.01-.28,1.81-.83,2.39-.55.58-1.36.87-2.43.87Z"/>
    <path class="cls-1" d="M262.53,102.52v-11.32h3.21c1.03,0,1.84.26,2.43.78.58.52.88,1.24.88,2.15,0,.58-.18,1.1-.55,1.57-.37.46-.84.75-1.44.87v.05c.45.05.84.21,1.17.46.33.26.6.59.79.98.19.4.29.84.29,1.31,0,.97-.3,1.74-.89,2.3-.59.56-1.41.84-2.44.84h-3.44ZM263.89,96.02h1.83c.6,0,1.07-.16,1.42-.48.35-.32.52-.75.52-1.3s-.17-.98-.51-1.3-.81-.48-1.41-.48h-1.85v3.57ZM263.89,101.26h1.92c.65,0,1.17-.17,1.54-.52s.57-.82.57-1.42-.19-1.13-.57-1.51-.89-.58-1.54-.58h-1.92v4.03Z"/>
    <path class="cls-1" d="M273.03,102.52v-11.32h1.4v10.05h5.12v1.27h-6.51Z"/>
    <path class="cls-1" d="M282.56,102.52v-1.27h2.31v-8.78h-2.31v-1.27h6.05v1.27h-2.31v8.78h2.31v1.27h-6.05Z"/>
    <path class="cls-1" d="M295.63,102.67c-1.03,0-1.85-.29-2.45-.87-.6-.58-.9-1.37-.9-2.39v-5.12c0-1.01.3-1.81.9-2.39s1.42-.87,2.45-.87,1.82.29,2.42.88c.6.58.9,1.38.9,2.38h-1.39c0-.64-.17-1.13-.5-1.48s-.81-.52-1.42-.52-1.09.17-1.43.52c-.35.35-.52.84-.52,1.48v5.12c0,.64.17,1.14.52,1.48.35.35.82.52,1.43.52s1.08-.17,1.42-.52c.34-.35.5-.84.5-1.48h1.39c0,1-.3,1.8-.9,2.38s-1.41.88-2.42.88Z"/>
    <path class="cls-1" d="M312.14,102.52v-11.32h3.21c1.03,0,1.84.26,2.43.78.58.52.88,1.24.88,2.15,0,.58-.18,1.1-.55,1.57-.37.46-.84.75-1.44.87v.05c.45.05.84.21,1.17.46.33.26.6.59.79.98.19.4.29.84.29,1.31,0,.97-.3,1.74-.89,2.3-.59.56-1.41.84-2.44.84h-3.44ZM313.51,96.02h1.83c.6,0,1.07-.16,1.42-.48.35-.32.52-.75.52-1.3s-.17-.98-.51-1.3-.81-.48-1.41-.48h-1.85v3.57ZM313.51,101.26h1.92c.65,0,1.17-.17,1.54-.52s.57-.82.57-1.42-.19-1.13-.57-1.51-.89-.58-1.54-.58h-1.92v4.03Z"/>
    <path class="cls-1" d="M322.18,102.52v-11.32h6.51v1.27h-5.13v3.5h4.59v1.24h-4.59v4.03h5.13v1.27h-6.51Z"/>
    <path class="cls-1" d="M331.95,102.52v-11.32h1.86l3.46,9.69c-.02-.26-.04-.58-.07-.95-.03-.38-.05-.78-.06-1.19-.02-.42-.02-.81-.02-1.19v-6.36h1.35v11.32h-1.86l-3.44-9.69c.02.25.04.56.06.94.02.38.04.78.05,1.19.02.42.02.82.02,1.2v6.36h-1.35Z"/>
    <path class="cls-1" d="M342.02,102.52v-11.32h6.51v1.27h-5.13v3.5h4.59v1.24h-4.59v4.03h5.13v1.27h-6.51Z"/>
    <path class="cls-1" d="M351.87,102.52v-11.32h6.67v1.27h-5.3v3.75h4.9v1.27h-4.87v5.02h-1.39Z"/>
    <path class="cls-1" d="M361.95,102.52v-1.27h2.31v-8.78h-2.31v-1.27h6.05v1.27h-2.31v8.78h2.31v1.27h-6.05Z"/>
    <path class="cls-1" d="M374.2,102.52v-10.05h-3.1v-1.27h7.6v1.27h-3.1v10.05h-1.4Z"/>
  </g>
</svg>