<?xml version="1.0" encoding="UTF-8"?>
<svg id="Layer_1" data-name="Layer 1" xmlns="http://www.w3.org/2000/svg" viewBox="0 0 485.96 104.38">
  <defs>
    <style>
      .cls-1 {
        fill: #eee3ce;
      }
    </style>
  </defs>
  <g>
    <path class="cls-1" d="M53.4,35.66c-.11-.22-.24-.44-.34-.66l-.52.66c.06.12.12.24.18.35l.18.34.67-.36-.18-.33Z"/>
    <path class="cls-1" d="M80.56,0l-19.77,25.16L41.01,0,0,52.18l41.01,52.19,19.78-25.16,19.77,25.16,41.02-52.19L80.56,0ZM35.51,16.88c.78.95,1.19,1.88.94,3.34-.08.44-.19.88-.31,1.34-.22.87-.44,1.76-.47,2.73-.02.82.13,2.02.92,3.01.5.61,1.14,1,1.69,1.34l.25.15c4.8,2.99,7.63,8.96,8.44,13.92l-2.33,2.96c-.58-1-1.12-2.03-1.54-3.11-.21-.53-.41-1.08-.61-1.63-.76-2.11-1.55-4.3-3.07-6.02-.96-1.11-2.18-1.95-3.34-2.77-.47-.33-.93-.66-1.39-1-3-2.27-3.61-5.18-3.71-8.52l4.51-5.75ZM23.66,31.97c1.25,1.32,2.9,2.17,4.5,3,.78.4,1.59.82,2.32,1.28,2.4,1.51,4.6,3.43,6.21,5.4.94,1.15,1.76,4.31.91,5.4-.37.48-1.08.47-2.11,0-1.21-.56-1.86-1.53-2.56-2.56-.24-.35-.48-.7-.75-1.05-1.84-2.4-4.3-3.95-6.92-4.33-2.73-.4-5.49.26-8.06,1.11l6.47-8.24ZM7.77,52.18l8.54-10.87c2.89-1.02,5.85-1.9,8.82-1.47,2.43.36,4.71,1.79,6.44,4.04.26.34.49.68.72,1.02.73,1.07,1.48,2.18,2.88,2.82.67.32,1.21.44,1.65.44.7,0,1.13-.31,1.39-.65,1.11-1.43.21-4.97-.92-6.35-1.66-2.04-3.93-4.01-6.4-5.57-.76-.48-1.58-.9-2.38-1.31-1.57-.81-3.2-1.65-4.37-2.93l6.15-7.82c.21,3.11,1.01,5.96,3.98,8.21.46.35.93.68,1.41,1.02,1.13.79,2.3,1.61,3.21,2.65,1.42,1.62,2.18,3.73,2.92,5.78.21.55.4,1.11.61,1.65.48,1.21,1.1,2.37,1.76,3.47l-4.61,5.86,7.21,9.18c-.42.27-.91.45-1.47.55-3.56.62-9.79-1.9-15.64-11-.15-.23-.3-.47-.44-.69-.67-1.07-1.36-2.18-2.33-3.05-3.17-2.86-8.24-.71-10.88,1.44-2.24,1.82-3.94,4.55-4.9,7.82l-3.34-4.25ZM15.37,61.86l-3.67-4.67c.89-3.36,2.56-6.15,4.79-7.98,2.34-1.9,7.09-3.98,9.89-1.46.89.79,1.55,1.85,2.19,2.88.15.24.29.47.44.7,3.52,5.46,9.43,11.45,15.1,11.45.44,0,.89-.03,1.32-.11.69-.12,1.3-.35,1.81-.71l4.45,5.67c-2.78.03-5.37.62-7.64,1.14-2.75.62-5.12,1.16-6.68.49-2.34-1-4.05-3.85-5.7-6.61-1.37-2.29-2.79-4.66-4.67-6.17l-.31-.25c-2.02-1.63-3.86-2.33-5.49-2.08-1.29.19-2.39.95-3.27,2.25-.79,1.15-1.29,2.43-1.79,3.66-.25.63-.49,1.23-.76,1.8ZM16.92,63.83c.54-.95.95-1.95,1.34-2.93.47-1.17.91-2.27,1.55-3.22.52-.76,1.08-1.18,1.72-1.27.95-.15,2.24.4,3.72,1.6l.31.25c1.56,1.26,2.82,3.35,4.15,5.57,1.84,3.07,3.74,6.24,6.76,7.53.82.35,1.72.5,2.66.5,1.63,0,3.44-.41,5.42-.86,2.77-.63,5.82-1.32,8.99-1.01l2.04,2.6c-3.77-.05-7.41.37-11.12,1.26-.72.18-1.45.42-2.16.66-1.84.62-3.74,1.25-5.56.7-1.92-.59-3.53-2.37-4.74-3.85-.5-.62-.98-1.26-1.45-1.89-.81-1.08-1.64-2.2-2.58-3.21-1.44-1.53-3.58-3.53-5.55-3.12-1.83.39-2.37,2.23-2.86,4.04l-2.63-3.34ZM41.02,94.49l-5.21-6.62c.38.03.74.05,1.08.05,4.02,0,5.58-2.21,6.89-4.06,1.47-2.09,2.57-3.66,6.78-1.51l-9.54,12.15ZM51.04,81.74c-4.92-2.53-6.36-.48-7.89,1.68-1.43,2.02-3.04,4.3-8.02,3.6h0s-9.24-11.77-9.24-11.77c.39-.34.81-.51,1.25-.55,1.85-.16,4.01,2.15,5.93,4.18,1.46,1.54,2.83,2.99,4.03,3.37.28.09.54.13.79.13,1.24,0,2.19-.92,2.98-1.67.15-.15.3-.28.44-.42,1.37-1.23,2.87-1.95,4.6-2.18,1.66-.22,3.37-.08,5.03.05.92.08,1.84.15,2.77.17l-2.69,3.42ZM54.32,77.56c-1.11.02-2.21-.08-3.31-.16-1.7-.15-3.46-.29-5.19-.05-1.89.25-3.53,1.02-5.01,2.37-.15.14-.3.28-.46.43-.89.85-1.82,1.74-3.02,1.37-1.01-.31-2.32-1.7-3.71-3.17-2.14-2.26-4.34-4.6-6.54-4.41-.6.05-1.15.29-1.66.71l-5.28-6.73c.05-.16.09-.32.14-.48.47-1.68.91-3.26,2.31-3.55,1.76-.37,4.07,2.09,4.83,2.9.91.98,1.73,2.07,2.53,3.14.48.64.96,1.29,1.47,1.92,1.27,1.56,2.99,3.45,5.11,4.09.57.18,1.14.25,1.71.25,1.46,0,2.9-.49,4.31-.95.73-.24,1.41-.47,2.1-.64,3.84-.92,7.63-1.33,11.55-1.23l.72.92-2.59,3.28ZM53.05,35c.11.22.23.44.34.66l.18.33-.67.36-.18-.34c-.06-.11-.12-.23-.18-.35l-3.69,4.7c-1.27-5.03-4.31-10.55-9.08-13.53l-.26-.16c-.44-.27-.86-.53-1.11-.83-.28-.35-.44-.89-.42-1.51.02-.71.2-1.44.4-2.21.12-.49.25-.99.34-1.52.44-2.57-.53-4.18-1.75-5.57l4.06-5.16,3.22,4.1h0c-.03.18-.07.36-.11.53-.12.58-.35,1.11-.6,1.68-.21.47-.41.96-.56,1.48-.98,3.42,1.27,5.15,3.43,6.82,1.24.96,2.53,1.96,3.18,3.27.47.93.74,1.97,1.01,2.98.11.42.22.84.35,1.26.39,1.31,1,2.5,1.6,3.66l.52-.66c-.55-1.06-1.05-2.09-1.39-3.22-.13-.4-.24-.82-.34-1.24-.27-1.04-.56-2.11-1.06-3.12-.73-1.46-2.08-2.51-3.39-3.53-2.15-1.66-4-3.09-3.17-6.01.14-.48.33-.92.53-1.39.24-.55.48-1.12.63-1.73l12.05,15.34-3.86,4.9ZM86.61,58.23v12.08h-12.08v-12.08h-12.08v-12.08h12.08v-12.08h12.08v12.08h12.08v12.08h-12.08Z"/>
  </g>
  <g>
    <g>
      <path class="cls-1" d="M145.16,30.22l8.84-25.12h5.62l8.86,25.12h-4.86l-2.09-6.2h-9.45l-2.07,6.2h-4.86ZM160.31,20.37l-3.4-10.12h-.2l-3.4,10.12h6.99Z"/>
      <path class="cls-1" d="M191,13.58c-.53-3.01-2.92-4.74-5.97-4.74-4.11,0-7,3.15-7,8.82s2.92,8.82,6.99,8.82c3.01,0,5.41-1.66,5.99-4.6l4.59.02c-.7,4.8-4.66,8.66-10.64,8.66-6.62,0-11.51-4.8-11.51-12.91s4.94-12.91,11.51-12.91c5.57,0,9.86,3.24,10.64,8.82h-4.59Z"/>
      <path class="cls-1" d="M202.14,5.1h20.04v3.82h-7.76v21.31h-4.51V8.91h-7.77v-3.82Z"/>
      <path class="cls-1" d="M234.05,30.22h-4.55V5.1h4.55v25.12Z"/>
      <path class="cls-1" d="M253.36,30.57c-6.6,0-11.54-4.8-11.54-12.91s4.94-12.91,11.54-12.91,11.54,4.78,11.54,12.91-4.96,12.91-11.54,12.91ZM253.36,8.84c-4.09,0-6.97,3.1-6.97,8.82s2.88,8.82,6.97,8.82,6.97-3.1,6.97-8.82-2.87-8.82-6.97-8.82Z"/>
      <path class="cls-1" d="M293.34,30.22h-4.05l-11.84-17.11h-.21v17.11h-4.55V5.1h4.07l11.83,17.13h.22V5.1h4.53v25.12Z"/>
      <path class="cls-1" d="M322.71,8.61c-2.85,0-4.54,1.39-4.55,3.27-.02,2.1,2.21,2.97,4.27,3.46l2.36.59c3.78.9,7.37,2.88,7.38,7.24-.01,4.43-3.51,7.43-9.53,7.43s-9.57-2.81-9.75-7.8h4.48c.18,2.64,2.39,3.91,5.24,3.91s5-1.44,5.02-3.58c-.01-1.95-1.8-2.8-4.52-3.48l-2.86-.74c-4.13-1.07-6.7-3.14-6.7-6.75-.01-4.44,3.95-7.41,9.23-7.41s8.97,3.01,9.05,7.25h-4.38c-.23-2.13-2.03-3.4-4.74-3.4Z"/>
      <path class="cls-1" d="M339.68,5.1h9.42c5.78,0,8.86,3.52,8.86,8.32s-3.12,8.32-8.92,8.32h-4.81v8.49h-4.55V5.1ZM348.43,17.99c3.39,0,4.89-1.9,4.89-4.58s-1.51-4.51-4.92-4.51h-4.17v9.09h4.2Z"/>
      <path class="cls-1" d="M376.28,30.57c-6.6,0-11.54-4.8-11.54-12.91s4.94-12.91,11.54-12.91,11.54,4.78,11.54,12.91-4.96,12.91-11.54,12.91ZM376.28,8.84c-4.09,0-6.97,3.1-6.97,8.82s2.88,8.82,6.97,8.82,6.97-3.1,6.97-8.82-2.87-8.82-6.97-8.82Z"/>
      <path class="cls-1" d="M395.61,5.1h9.42c5.77,0,8.86,3.24,8.86,8.04,0,3.41-1.56,5.94-4.51,7.13l5.43,9.96h-5.08l-4.93-9.2h-4.64v9.2h-4.55V5.1ZM404.36,17.24c3.37,0,4.89-1.44,4.89-4.11s-1.52-4.23-4.92-4.23h-4.17v8.34h4.2Z"/>
      <path class="cls-1" d="M420.45,5.1h20.04v3.82h-7.76v21.31h-4.51V8.91h-7.77v-3.82Z"/>
      <path class="cls-1" d="M456.73,8.61c-2.85,0-4.54,1.39-4.55,3.27-.02,2.1,2.21,2.97,4.27,3.46l2.36.59c3.78.9,7.37,2.88,7.38,7.24-.01,4.43-3.51,7.43-9.53,7.43s-9.57-2.81-9.75-7.8h4.48c.18,2.64,2.39,3.91,5.24,3.91s5-1.44,5.02-3.58c-.01-1.95-1.8-2.8-4.52-3.48l-2.86-.74c-4.13-1.07-6.7-3.14-6.7-6.75-.01-4.44,3.95-7.41,9.23-7.41s8.97,3.01,9.05,7.25h-4.38c-.23-2.13-2.03-3.4-4.74-3.4Z"/>
      <path class="cls-1" d="M155.71,49.18c-2.85,0-4.54,1.39-4.55,3.27-.02,2.1,2.21,2.97,4.27,3.46l2.36.59c3.78.9,7.37,2.88,7.38,7.24-.01,4.43-3.51,7.43-9.53,7.43s-9.57-2.81-9.75-7.8h4.48c.18,2.64,2.39,3.91,5.24,3.91s5-1.44,5.02-3.58c-.01-1.95-1.8-2.8-4.52-3.48l-2.86-.74c-4.13-1.07-6.7-3.14-6.7-6.75-.01-4.44,3.95-7.41,9.23-7.41s8.97,3.01,9.05,7.25h-4.38c-.23-2.13-2.03-3.4-4.74-3.4Z"/>
      <path class="cls-1" d="M170.66,70.79l8.84-25.12h5.62l8.86,25.12h-4.86l-2.09-6.2h-9.45l-2.07,6.2h-4.86ZM185.81,60.94l-3.4-10.12h-.2l-3.4,10.12h6.99Z"/>
      <path class="cls-1" d="M200.76,45.67h16.09v3.82h-11.54v6.82h10.44v3.82h-10.44v10.67h-4.55v-25.12Z"/>
      <path class="cls-1" d="M224.46,45.67h16.34v3.82h-11.79v6.82h10.94v3.82h-10.94v6.86h11.89v3.82h-16.44v-25.12Z"/>
      <path class="cls-1" d="M247.81,45.67h20.04v3.82h-7.76v21.31h-4.51v-21.31h-7.77v-3.82Z"/>
      <path class="cls-1" d="M278.6,45.67l6.15,11.11h.25l6.15-11.11h5.14l-9.14,15.75v9.37h-4.54v-9.37l-9.14-15.75h5.14Z"/>
      <path class="cls-1" d="M315.02,45.67h9.42c5.78,0,8.86,3.52,8.86,8.32s-3.12,8.32-8.92,8.32h-4.81v8.49h-4.55v-25.12ZM323.76,58.56c3.39,0,4.89-1.9,4.89-4.58s-1.51-4.51-4.92-4.51h-4.17v9.09h4.2Z"/>
      <path class="cls-1" d="M339.21,45.67h9.42c5.76,0,8.86,3.24,8.86,8.04,0,3.41-1.56,5.94-4.51,7.13l5.43,9.96h-5.08l-4.93-9.2h-4.64v9.2h-4.55v-25.12ZM347.95,57.81c3.37,0,4.89-1.44,4.89-4.11s-1.52-4.23-4.92-4.23h-4.17v8.34h4.2Z"/>
      <path class="cls-1" d="M376.28,71.13c-6.6,0-11.54-4.8-11.54-12.91s4.94-12.91,11.54-12.91,11.54,4.78,11.54,12.91-4.96,12.91-11.54,12.91ZM376.28,49.41c-4.09,0-6.97,3.1-6.97,8.82s2.88,8.82,6.97,8.82,6.97-3.1,6.97-8.82-2.87-8.82-6.97-8.82Z"/>
      <path class="cls-1" d="M408.93,45.67v17.67c-.01,4.86-3.26,7.8-8.11,7.8-4.4,0-7.79-2.38-7.79-7.02h4.53c.04,2.04,1.4,3.28,3.44,3.28,2.18,0,3.41-1.41,3.42-4.06v-17.67h4.51Z"/>
      <path class="cls-1" d="M417.29,45.67h16.34v3.82h-11.79v6.82h10.94v3.82h-10.94v6.86h11.89v3.82h-16.44v-25.12Z"/>
      <path class="cls-1" d="M457.54,54.14c-.53-3.01-2.92-4.74-5.97-4.74-4.11,0-7,3.15-7,8.82s2.92,8.82,6.99,8.82c3.01,0,5.41-1.66,5.99-4.6l4.59.02c-.7,4.8-4.66,8.66-10.64,8.66-6.62,0-11.51-4.8-11.51-12.91s4.94-12.91,11.51-12.91c5.57,0,9.86,3.24,10.64,8.82h-4.59Z"/>
      <path class="cls-1" d="M465.91,45.67h20.04v3.82h-7.76v21.31h-4.51v-21.31h-7.77v-3.82Z"/>
    </g>
    <g>
      <path class="cls-1" d="M148.71,97.89c-1.06,0-1.9-.3-2.52-.89s-.93-1.4-.93-2.42h1.42c0,.63.18,1.13.55,1.49s.86.55,1.49.55,1.13-.18,1.49-.55c.37-.37.55-.86.55-1.49v-.71c0-.63-.18-1.13-.53-1.49s-.84-.55-1.45-.55h-3.13v-5.58h6.12v1.29h-4.8l.03,3.01h1.86c1.06,0,1.88.29,2.45.87.58.58.87,1.4.87,2.46v.71c0,1.02-.31,1.82-.94,2.42s-1.47.89-2.54.89Z"/>
      <path class="cls-1" d="M158.88,97.89c-1.06,0-1.9-.31-2.53-.92-.62-.61-.94-1.43-.94-2.46v-5.03c0-1.03.31-1.85.94-2.46.63-.61,1.47-.92,2.53-.92s1.9.31,2.53.92c.62.61.94,1.43.94,2.46v5.03c0,.68-.14,1.28-.43,1.79-.28.51-.68.9-1.2,1.18s-1.13.42-1.83.42ZM158.88,96.68c.63,0,1.14-.2,1.52-.61s.57-.92.57-1.57v-5.03c0-.64-.19-1.16-.57-1.57-.38-.4-.89-.61-1.52-.61s-1.14.2-1.52.61c-.38.4-.57.93-.57,1.57v5.03c0,.64.19,1.16.57,1.57s.89.61,1.52.61ZM158.88,92.86c-.28,0-.51-.08-.68-.24-.17-.16-.26-.38-.26-.68s.09-.5.26-.65c.17-.15.4-.23.68-.23s.51.08.68.23c.17.15.26.37.26.65s-.09.52-.26.68c-.17.16-.4.24-.68.24Z"/>
      <path class="cls-1" d="M165.64,97.73v-1.29h3.11v-8.97l-3.11,2.33v-1.62l2.59-1.94h1.94v10.2h2.55v1.29h-7.08Z"/>
      <path class="cls-1" d="M181.92,99.62c-1.5-.34-2.66-1.04-3.48-2.11s-1.24-2.41-1.24-4.03v-2.83c0-1.61.41-2.96,1.24-4.03.82-1.07,1.98-1.77,3.48-2.11v1.37c-.67.16-1.26.45-1.75.9-.5.44-.88.99-1.15,1.64-.27.66-.4,1.4-.4,2.23v2.83c0,.82.13,1.56.4,2.22s.65,1.21,1.15,1.65c.5.44,1.08.74,1.75.9v1.37Z"/>
      <path class="cls-1" d="M189.21,97.89c-1.05,0-1.88-.29-2.49-.88-.61-.59-.91-1.4-.91-2.42v-5.19c0-1.03.3-1.84.91-2.42s1.44-.88,2.49-.88,1.85.3,2.45.89c.61.59.91,1.4.91,2.42h-1.41c0-.65-.17-1.15-.51-1.5s-.82-.53-1.44-.53-1.1.18-1.45.53c-.35.35-.53.85-.53,1.5v5.19c0,.65.18,1.15.53,1.5.35.35.84.53,1.45.53s1.1-.18,1.44-.53c.34-.35.51-.85.51-1.5h1.41c0,1.02-.3,1.82-.91,2.42s-1.43.89-2.45.89Z"/>
      <path class="cls-1" d="M196.24,99.62v-1.37c.68-.16,1.27-.46,1.76-.9.49-.44.87-.99,1.14-1.65s.4-1.4.4-2.22v-2.83c0-.83-.13-1.57-.4-2.23-.27-.65-.65-1.2-1.14-1.64-.49-.44-1.08-.74-1.76-.9v-1.37c1.5.33,2.66,1.04,3.48,2.11.82,1.07,1.24,2.41,1.24,4.03v2.83c0,1.62-.41,2.96-1.24,4.03s-1.98,1.77-3.48,2.11Z"/>
      <path class="cls-1" d="M212.13,99.62c-1.5-.34-2.66-1.04-3.48-2.11s-1.24-2.41-1.24-4.03v-2.83c0-1.61.41-2.96,1.24-4.03.82-1.07,1.98-1.77,3.48-2.11v1.37c-.67.16-1.26.45-1.75.9-.5.44-.88.99-1.15,1.64-.27.66-.4,1.4-.4,2.23v2.83c0,.82.13,1.56.4,2.22s.65,1.21,1.15,1.65c.5.44,1.08.74,1.75.9v1.37Z"/>
      <path class="cls-1" d="M219.11,97.89c-1.06,0-1.9-.3-2.52-.89s-.93-1.4-.93-2.42h1.41c0,.63.18,1.13.55,1.49s.86.55,1.49.55,1.13-.18,1.49-.55.55-.86.55-1.49v-.79c0-.63-.18-1.13-.55-1.49-.37-.37-.86-.55-1.49-.55h-1.24v-1.23l2.82-2.99h-4.72v-1.29h6.32v1.32l-2.77,2.94c.94.07,1.69.4,2.23.98s.82,1.35.82,2.3v.79c0,1.02-.31,1.82-.94,2.42s-1.47.89-2.54.89Z"/>
      <path class="cls-1" d="M226.44,99.62v-1.37c.68-.16,1.27-.46,1.76-.9.49-.44.87-.99,1.14-1.65s.4-1.4.4-2.22v-2.83c0-.83-.13-1.57-.4-2.23-.27-.65-.65-1.2-1.14-1.64-.49-.44-1.08-.74-1.76-.9v-1.37c1.5.33,2.66,1.04,3.48,2.11.82,1.07,1.24,2.41,1.24,4.03v2.83c0,1.62-.41,2.96-1.24,4.03s-1.98,1.77-3.48,2.11Z"/>
      <path class="cls-1" d="M246.22,97.73v-11.48h3.7c1.07,0,1.92.31,2.56.92.63.61.95,1.43.95,2.46s-.32,1.85-.95,2.46c-.63.61-1.49.92-2.56.92h-2.28v4.72h-1.42ZM247.63,91.74h2.28c.62,0,1.12-.19,1.49-.57s.56-.89.56-1.53-.19-1.16-.56-1.54-.87-.57-1.49-.57h-2.28v4.22Z"/>
      <path class="cls-1" d="M259.56,97.89c-1.07,0-1.89-.3-2.45-.89-.57-.59-.85-1.4-.85-2.42v-8.34h1.41v8.34c0,.63.16,1.13.46,1.49.31.37.79.55,1.42.55s1.1-.18,1.42-.55c.31-.37.47-.86.47-1.49v-8.34h1.41v8.34c0,1.03-.28,1.84-.84,2.42-.56.59-1.38.88-2.46.88Z"/>
      <path class="cls-1" d="M266.37,97.73v-11.48h3.26c1.05,0,1.87.26,2.46.79.59.52.89,1.25.89,2.19,0,.59-.19,1.12-.56,1.59-.37.47-.86.77-1.46.88v.05c.45.05.85.21,1.19.47.34.26.61.6.8,1,.19.4.29.85.29,1.33,0,.98-.3,1.76-.9,2.34-.6.57-1.43.86-2.48.86h-3.49ZM267.76,91.14h1.86c.61,0,1.09-.16,1.44-.49.35-.32.53-.77.53-1.32s-.17-1-.52-1.32-.82-.49-1.43-.49h-1.87v3.62ZM267.76,96.46h1.95c.66,0,1.18-.18,1.57-.53s.57-.83.57-1.44-.19-1.14-.57-1.53-.9-.59-1.57-.59h-1.95v4.09Z"/>
      <path class="cls-1" d="M277.02,97.73v-11.48h1.42v10.2h5.19v1.29h-6.61Z"/>
      <path class="cls-1" d="M286.7,97.73v-1.29h2.34v-8.9h-2.34v-1.29h6.14v1.29h-2.34v8.9h2.34v1.29h-6.14Z"/>
      <path class="cls-1" d="M299.96,97.89c-1.05,0-1.88-.29-2.49-.88-.61-.59-.91-1.4-.91-2.42v-5.19c0-1.03.3-1.84.91-2.42s1.44-.88,2.49-.88,1.85.3,2.45.89c.61.59.91,1.4.91,2.42h-1.41c0-.65-.17-1.15-.51-1.5s-.82-.53-1.44-.53-1.1.18-1.45.53c-.35.35-.53.85-.53,1.5v5.19c0,.65.18,1.15.53,1.5.35.35.84.53,1.45.53s1.1-.18,1.44-.53c.34-.35.51-.85.51-1.5h1.41c0,1.02-.3,1.82-.91,2.42s-1.43.89-2.45.89Z"/>
      <path class="cls-1" d="M316.71,97.73v-11.48h3.26c1.05,0,1.87.26,2.46.79.59.52.89,1.25.89,2.19,0,.59-.19,1.12-.56,1.59-.37.47-.86.77-1.46.88v.05c.45.05.85.21,1.19.47.34.26.61.6.8,1,.19.4.29.85.29,1.33,0,.98-.3,1.76-.9,2.34-.6.57-1.43.86-2.48.86h-3.49ZM318.1,91.14h1.86c.61,0,1.09-.16,1.44-.49.35-.32.53-.77.53-1.32s-.17-1-.52-1.32-.82-.49-1.43-.49h-1.87v3.62ZM318.1,96.46h1.95c.66,0,1.18-.18,1.57-.53s.57-.83.57-1.44-.19-1.14-.57-1.53-.9-.59-1.57-.59h-1.95v4.09Z"/>
      <path class="cls-1" d="M326.89,97.73v-11.48h6.61v1.29h-5.21v3.56h4.66v1.26h-4.66v4.09h5.21v1.29h-6.61Z"/>
      <path class="cls-1" d="M336.8,97.73v-11.48h1.89l3.51,9.83c-.02-.26-.04-.58-.07-.97-.03-.38-.05-.79-.06-1.21-.02-.43-.02-.83-.02-1.2v-6.45h1.37v11.48h-1.89l-3.49-9.83c.02.25.04.57.06.95.02.38.04.79.06,1.21.02.43.02.83.02,1.22v6.45h-1.37Z"/>
      <path class="cls-1" d="M347.03,97.73v-11.48h6.61v1.29h-5.21v3.56h4.66v1.26h-4.66v4.09h5.21v1.29h-6.61Z"/>
      <path class="cls-1" d="M357.02,97.73v-11.48h6.76v1.29h-5.38v3.81h4.97v1.29h-4.94v5.1h-1.41Z"/>
      <path class="cls-1" d="M367.24,97.73v-1.29h2.34v-8.9h-2.34v-1.29h6.14v1.29h-2.34v8.9h2.34v1.29h-6.14Z"/>
      <path class="cls-1" d="M379.67,97.73v-10.19h-3.15v-1.29h7.71v1.29h-3.15v10.19h-1.42Z"/>
    </g>
  </g>
</svg>