<?xml version="1.0" encoding="UTF-8"?>
<svg id="Layer_1" data-name="Layer 1" xmlns="http://www.w3.org/2000/svg" viewBox="0 0 479.78 103.05">
  <defs>
    <style>
      .cls-1 {
        fill: #eee3ce;
      }
    </style>
  </defs>
  <g>
    <path class="cls-1" d="M52.72,35.21c-.11-.22-.23-.44-.34-.66l-.51.66c.06.12.12.23.18.35l.18.33.66-.35-.17-.32Z"/>
    <path class="cls-1" d="M79.53,0l-19.52,24.84L40.49,0,0,51.52l40.49,51.53,19.53-24.84,19.52,24.84,40.5-51.53L79.53,0ZM35.06,16.66c.77.94,1.18,1.85.93,3.29-.08.43-.19.87-.3,1.33-.22.86-.44,1.74-.46,2.69-.02.81.13,1.99.91,2.97.5.6,1.12.99,1.67,1.33l.25.15c4.74,2.95,7.53,8.85,8.34,13.75l-2.3,2.92c-.57-.99-1.11-2-1.52-3.07-.21-.53-.41-1.06-.6-1.61-.75-2.09-1.53-4.24-3.03-5.95-.95-1.09-2.15-1.93-3.3-2.74-.46-.32-.92-.65-1.37-.99-2.96-2.25-3.56-5.12-3.66-8.41l4.45-5.68ZM23.36,31.56c1.24,1.3,2.86,2.14,4.45,2.96.77.4,1.57.81,2.29,1.27,2.37,1.49,4.54,3.38,6.13,5.33.93,1.14,1.73,4.26.9,5.33-.36.47-1.06.47-2.09,0-1.19-.56-1.84-1.51-2.53-2.53-.23-.35-.47-.69-.74-1.04-1.82-2.37-4.24-3.9-6.84-4.27-2.7-.4-5.42.26-7.96,1.1l6.38-8.13ZM7.67,51.52l8.43-10.73c2.85-1.01,5.77-1.88,8.71-1.45,2.4.35,4.65,1.77,6.35,3.99.26.33.48.67.71,1,.72,1.06,1.46,2.15,2.84,2.79.66.32,1.2.44,1.63.44.69,0,1.12-.31,1.37-.64,1.09-1.41.21-4.91-.91-6.27-1.64-2.01-3.88-3.96-6.32-5.49-.75-.47-1.56-.89-2.35-1.3-1.55-.8-3.16-1.63-4.32-2.89l6.07-7.72c.2,3.07.99,5.89,3.93,8.11.45.35.92.67,1.39,1,1.12.78,2.27,1.59,3.17,2.62,1.4,1.6,2.16,3.69,2.89,5.71.2.54.4,1.09.6,1.63.47,1.2,1.09,2.34,1.73,3.43l-4.55,5.79,7.12,9.07c-.41.26-.9.44-1.45.54-3.51.61-9.66-1.88-15.44-10.86-.15-.23-.29-.46-.43-.69-.66-1.06-1.34-2.15-2.3-3.01-3.13-2.83-8.14-.7-10.74,1.42-2.21,1.8-3.89,4.49-4.84,7.72l-3.3-4.2ZM15.18,61.07l-3.63-4.61c.87-3.32,2.52-6.07,4.73-7.88,2.31-1.88,7-3.93,9.76-1.44.87.78,1.53,1.83,2.16,2.84.14.23.29.46.43.69,3.47,5.39,9.31,11.3,14.91,11.3.44,0,.87-.03,1.3-.11.68-.12,1.28-.35,1.79-.7l4.39,5.6c-2.74.03-5.31.61-7.54,1.12-2.71.61-5.06,1.15-6.59.48-2.31-.99-3.99-3.8-5.63-6.53-1.36-2.26-2.76-4.6-4.61-6.09l-.31-.25c-1.99-1.61-3.81-2.3-5.42-2.06-1.27.19-2.36.93-3.23,2.22-.78,1.14-1.27,2.4-1.76,3.61-.25.62-.48,1.21-.75,1.78ZM16.71,63.02c.54-.93.93-1.93,1.32-2.89.46-1.15.9-2.24,1.53-3.18.51-.75,1.06-1.16,1.7-1.25.94-.15,2.22.4,3.67,1.58l.31.25c1.54,1.24,2.78,3.31,4.09,5.5,1.82,3.03,3.69,6.16,6.68,7.44.81.35,1.7.49,2.63.49,1.61,0,3.4-.41,5.35-.85,2.74-.62,5.75-1.3,8.88-.99l2.01,2.56c-3.72-.05-7.32.37-10.98,1.24-.71.17-1.43.41-2.13.65-1.82.61-3.69,1.24-5.49.69-1.89-.58-3.49-2.34-4.68-3.8-.49-.61-.96-1.24-1.43-1.87-.8-1.07-1.62-2.17-2.55-3.17-1.42-1.51-3.53-3.49-5.48-3.08-1.81.38-2.34,2.2-2.83,3.99l-2.6-3.3ZM40.49,93.29l-5.14-6.53c.38.03.73.05,1.07.05,3.97,0,5.51-2.19,6.8-4.01,1.45-2.07,2.54-3.61,6.69-1.49l-9.42,11.99ZM50.39,80.7c-4.86-2.5-6.28-.47-7.79,1.66-1.41,2-3,4.24-7.91,3.55h0s-9.13-11.62-9.13-11.62c.38-.33.8-.5,1.24-.54,1.82-.16,3.96,2.12,5.86,4.12,1.44,1.52,2.8,2.95,3.98,3.32.28.09.54.13.78.13,1.22,0,2.16-.9,2.95-1.65.15-.14.29-.28.44-.41,1.35-1.21,2.83-1.92,4.54-2.15,1.64-.22,3.33-.08,4.97.05.9.08,1.82.15,2.74.17l-2.65,3.38ZM53.63,76.57c-1.09.02-2.19-.08-3.26-.16-1.68-.14-3.41-.29-5.12-.05-1.86.25-3.48,1.01-4.94,2.34-.15.14-.29.28-.45.42-.88.84-1.8,1.72-2.98,1.36-.99-.31-2.29-1.68-3.66-3.13-2.11-2.23-4.28-4.54-6.46-4.36-.59.05-1.14.29-1.64.7l-5.22-6.64c.05-.16.09-.32.14-.47.46-1.66.9-3.22,2.28-3.5,1.74-.37,4.02,2.07,4.77,2.86.9.96,1.71,2.04,2.49,3.1.47.63.95,1.27,1.45,1.89,1.25,1.55,2.95,3.41,5.04,4.04.57.17,1.12.25,1.69.25,1.44,0,2.86-.48,4.26-.94.72-.24,1.39-.47,2.07-.63,3.79-.91,7.53-1.31,11.4-1.21l.71.9-2.55,3.24ZM52.38,34.56c.11.22.23.44.34.66l.17.32-.66.35-.18-.33c-.06-.11-.12-.23-.18-.35l-3.65,4.64c-1.26-4.97-4.25-10.42-8.97-13.35l-.26-.16c-.44-.26-.85-.52-1.09-.82-.28-.35-.43-.87-.41-1.49.02-.7.2-1.42.39-2.19.12-.48.25-.98.33-1.5.44-2.54-.52-4.12-1.73-5.49l4.01-5.09,3.18,4.05h0c-.03.18-.07.35-.11.53-.12.57-.35,1.1-.59,1.66-.2.47-.41.95-.56,1.46-.96,3.38,1.25,5.09,3.38,6.74,1.23.95,2.5,1.94,3.14,3.23.46.92.73,1.94.99,2.94.11.41.22.83.35,1.24.38,1.29.99,2.47,1.58,3.62l.51-.66c-.54-1.05-1.04-2.07-1.37-3.18-.13-.4-.23-.81-.34-1.22-.27-1.02-.56-2.09-1.05-3.08-.72-1.44-2.06-2.48-3.35-3.48-2.12-1.64-3.95-3.05-3.13-5.93.14-.47.32-.91.52-1.37.23-.54.47-1.11.62-1.71l11.9,15.14-3.81,4.84ZM85.5,57.49v11.93h-11.93v-11.93h-11.93v-11.93h11.93v-11.93h11.93v11.93h11.93v11.93h-11.93Z"/>
  </g>
  <g>
    <path class="cls-1" d="M143.31,43.88l8.73-24.8h5.55l8.75,24.8h-4.8l-2.06-6.12h-9.33l-2.05,6.12h-4.8ZM158.27,34.16l-3.36-9.99h-.19l-3.35,9.99h6.9Z"/>
    <path class="cls-1" d="M188.57,27.45c-.52-2.97-2.88-4.68-5.9-4.68-4.06,0-6.92,3.11-6.92,8.71s2.88,8.71,6.9,8.71c2.97,0,5.34-1.64,5.91-4.54l4.53.02c-.69,4.74-4.6,8.55-10.5,8.55-6.54,0-11.36-4.74-11.36-12.74s4.88-12.74,11.36-12.74c5.5,0,9.74,3.2,10.5,8.71h-4.53Z"/>
    <path class="cls-1" d="M199.56,19.08h19.79v3.77h-7.67v21.04h-4.46v-21.04h-7.67v-3.77Z"/>
    <path class="cls-1" d="M231.07,43.88h-4.49v-24.8h4.49v24.8Z"/>
    <path class="cls-1" d="M250.14,44.22c-6.52,0-11.4-4.74-11.4-12.74s4.88-12.74,11.4-12.74,11.4,4.72,11.4,12.74-4.89,12.74-11.4,12.74ZM250.14,22.77c-4.03,0-6.88,3.06-6.88,8.71s2.85,8.71,6.88,8.71,6.88-3.06,6.88-8.71-2.83-8.71-6.88-8.71Z"/>
    <path class="cls-1" d="M289.61,43.88h-4l-11.69-16.9h-.21v16.9h-4.49v-24.8h4.02l11.67,16.91h.22v-16.91h4.47v24.8Z"/>
    <path class="cls-1" d="M318.6,22.54c-2.81,0-4.48,1.37-4.49,3.23-.02,2.07,2.18,2.93,4.21,3.42l2.33.58c3.73.88,7.28,2.85,7.29,7.15-.01,4.37-3.46,7.34-9.41,7.34s-9.45-2.77-9.63-7.7h4.42c.18,2.6,2.36,3.86,5.17,3.86s4.94-1.42,4.95-3.54c-.01-1.93-1.78-2.76-4.46-3.44l-2.82-.73c-4.08-1.05-6.61-3.1-6.61-6.66-.01-4.38,3.9-7.32,9.11-7.32s8.85,2.97,8.94,7.16h-4.32c-.23-2.11-2-3.35-4.68-3.35Z"/>
    <path class="cls-1" d="M335.36,19.08h9.3c5.7,0,8.74,3.48,8.74,8.21s-3.08,8.21-8.8,8.21h-4.75v8.38h-4.49v-24.8ZM343.99,31.81c3.34,0,4.83-1.88,4.83-4.52s-1.49-4.46-4.86-4.46h-4.12v8.97h4.14Z"/>
    <path class="cls-1" d="M371.49,44.22c-6.52,0-11.4-4.74-11.4-12.74s4.88-12.74,11.4-12.74,11.4,4.72,11.4,12.74-4.89,12.74-11.4,12.74ZM371.49,22.77c-4.03,0-6.88,3.06-6.88,8.71s2.85,8.71,6.88,8.71,6.88-3.06,6.88-8.71-2.83-8.71-6.88-8.71Z"/>
    <path class="cls-1" d="M390.58,19.08h9.3c5.69,0,8.74,3.2,8.74,7.93,0,3.37-1.54,5.86-4.46,7.04l5.37,9.83h-5.01l-4.87-9.08h-4.58v9.08h-4.49v-24.8ZM399.21,31.07c3.33,0,4.83-1.42,4.83-4.06s-1.5-4.18-4.86-4.18h-4.12v8.24h4.14Z"/>
    <path class="cls-1" d="M415.1,19.08h19.79v3.77h-7.67v21.04h-4.46v-21.04h-7.67v-3.77Z"/>
    <path class="cls-1" d="M450.92,22.54c-2.81,0-4.48,1.37-4.49,3.23-.02,2.07,2.18,2.93,4.21,3.42l2.33.58c3.73.88,7.28,2.85,7.29,7.15-.01,4.37-3.46,7.34-9.41,7.34s-9.45-2.77-9.63-7.7h4.42c.18,2.6,2.36,3.86,5.17,3.86s4.94-1.42,4.95-3.54c-.01-1.93-1.78-2.76-4.46-3.44l-2.82-.73c-4.08-1.05-6.61-3.1-6.61-6.66-.01-4.38,3.9-7.32,9.11-7.32s8.85,2.97,8.94,7.16h-4.32c-.23-2.11-2-3.35-4.68-3.35Z"/>
    <path class="cls-1" d="M153.73,62.59c-2.81,0-4.48,1.37-4.49,3.23-.02,2.07,2.18,2.93,4.21,3.42l2.33.58c3.73.88,7.28,2.85,7.29,7.15-.01,4.37-3.46,7.34-9.41,7.34s-9.45-2.77-9.63-7.7h4.42c.18,2.6,2.36,3.86,5.17,3.86s4.94-1.42,4.95-3.54c-.01-1.93-1.78-2.76-4.46-3.44l-2.82-.73c-4.08-1.05-6.61-3.1-6.61-6.66-.01-4.38,3.9-7.32,9.11-7.32s8.85,2.97,8.94,7.16h-4.32c-.23-2.11-2-3.35-4.68-3.35Z"/>
    <path class="cls-1" d="M168.49,83.94l8.73-24.8h5.55l8.75,24.8h-4.8l-2.06-6.12h-9.33l-2.05,6.12h-4.8ZM183.45,74.21l-3.36-9.99h-.19l-3.35,9.99h6.9Z"/>
    <path class="cls-1" d="M198.21,59.13h15.89v3.77h-11.4v6.73h10.31v3.77h-10.31v10.54h-4.49v-24.8Z"/>
    <path class="cls-1" d="M221.6,59.13h16.13v3.77h-11.64v6.73h10.8v3.77h-10.8v6.77h11.74v3.77h-16.23v-24.8Z"/>
    <path class="cls-1" d="M244.66,59.13h19.79v3.77h-7.67v21.04h-4.46v-21.04h-7.67v-3.77Z"/>
    <path class="cls-1" d="M275.05,59.13l6.07,10.97h.24l6.07-10.97h5.08l-9.02,15.55v9.25h-4.48v-9.25l-9.02-15.55h5.08Z"/>
    <path class="cls-1" d="M311.01,59.13h9.3c5.7,0,8.74,3.48,8.74,8.21s-3.08,8.21-8.8,8.21h-4.75v8.38h-4.49v-24.8ZM319.64,71.86c3.34,0,4.83-1.88,4.83-4.52s-1.49-4.46-4.86-4.46h-4.12v8.97h4.14Z"/>
    <path class="cls-1" d="M334.89,59.13h9.3c5.69,0,8.74,3.2,8.74,7.93,0,3.37-1.54,5.86-4.46,7.04l5.37,9.83h-5.01l-4.87-9.08h-4.58v9.08h-4.49v-24.8ZM343.53,71.12c3.33,0,4.83-1.42,4.83-4.06s-1.5-4.18-4.86-4.18h-4.12v8.24h4.14Z"/>
    <path class="cls-1" d="M371.49,84.27c-6.52,0-11.4-4.74-11.4-12.74s4.88-12.74,11.4-12.74,11.4,4.72,11.4,12.74-4.89,12.74-11.4,12.74ZM371.49,62.82c-4.03,0-6.88,3.06-6.88,8.71s2.85,8.71,6.88,8.71,6.88-3.06,6.88-8.71-2.83-8.71-6.88-8.71Z"/>
    <path class="cls-1" d="M403.72,59.13v17.44c-.01,4.8-3.22,7.7-8,7.7-4.35,0-7.69-2.35-7.69-6.93h4.47c.04,2.01,1.38,3.23,3.39,3.23,2.16,0,3.37-1.39,3.38-4.01v-17.44h4.46Z"/>
    <path class="cls-1" d="M411.98,59.13h16.13v3.77h-11.64v6.73h10.8v3.77h-10.8v6.77h11.74v3.77h-16.23v-24.8Z"/>
    <path class="cls-1" d="M451.72,67.5c-.52-2.97-2.88-4.68-5.9-4.68-4.06,0-6.92,3.11-6.92,8.71s2.88,8.71,6.9,8.71c2.97,0,5.34-1.64,5.91-4.54l4.53.02c-.69,4.74-4.6,8.55-10.5,8.55-6.54,0-11.36-4.74-11.36-12.74s4.88-12.74,11.36-12.74c5.5,0,9.74,3.2,10.5,8.71h-4.53Z"/>
    <path class="cls-1" d="M459.99,59.13h19.79v3.77h-7.67v21.04h-4.46v-21.04h-7.67v-3.77Z"/>
  </g>
</svg>