<?xml version="1.0" encoding="UTF-8"?>
<svg id="Layer_1" data-name="Layer 1" xmlns="http://www.w3.org/2000/svg" viewBox="0 0 506.46 103.05">
  <defs>
    <style>
      .cls-1 {
        fill: #eee3ce;
      }
    </style>
  </defs>
  <g>
    <path class="cls-1" d="M162.99,41.6l-1.6-4.38h-11.36l-1.6,4.38h-5.95l9.84-25.43h6.79l9.8,25.43h-5.91ZM155.71,20.86l-4.23,11.67h8.43l-4.2-11.67Z"/>
    <path class="cls-1" d="M172.57,28.91c0-7.82,5.91-13.15,13.34-13.15,5.8,0,9.04,3.05,10.83,6.21l-4.65,2.29c-1.07-2.06-3.36-3.7-6.18-3.7-4.42,0-7.78,3.55-7.78,8.35s3.35,8.35,7.78,8.35c2.82,0,5.11-1.6,6.18-3.7l4.65,2.25c-1.83,3.16-5.03,6.25-10.83,6.25-7.43,0-13.34-5.34-13.34-13.15Z"/>
    <path class="cls-1" d="M209.68,41.6v-20.66h-7.43v-4.77h20.28v4.77h-7.4v20.66h-5.45Z"/>
    <path class="cls-1" d="M229.81,41.6v-25.43h5.41v25.43h-5.41Z"/>
    <path class="cls-1" d="M256.13,15.75c7.7,0,13.3,5.49,13.3,13.15s-5.6,13.15-13.3,13.15-13.27-5.49-13.27-13.15,5.6-13.15,13.27-13.15ZM256.13,20.56c-4.69,0-7.7,3.58-7.7,8.35s3.01,8.35,7.7,8.35,7.74-3.62,7.74-8.35-3.05-8.35-7.74-8.35Z"/>
    <path class="cls-1" d="M294.61,41.6l-12.12-17.08v17.08h-5.41v-25.43h5.57l11.78,16.47v-16.47h5.41v25.43h-5.22Z"/>
    <path class="cls-1" d="M323.48,33.9c1.79,1.87,4.57,3.43,8.08,3.43,2.97,0,4.42-1.41,4.42-2.86,0-1.91-2.21-2.55-5.15-3.24-4.16-.95-9.49-2.1-9.49-7.78,0-4.23,3.66-7.66,9.64-7.66,4.04,0,7.4,1.22,9.91,3.55l-3.01,3.96c-2.06-1.91-4.8-2.78-7.28-2.78s-3.74,1.07-3.74,2.59c0,1.72,2.14,2.25,5.07,2.94,4.19.95,9.53,2.21,9.53,7.85,0,4.65-3.32,8.16-10.18,8.16-4.88,0-8.39-1.64-10.79-4.04l2.97-4.12Z"/>
    <path class="cls-1" d="M348.96,41.6v-25.43h11.9c5.53,0,8.54,3.74,8.54,8.2s-3.05,8.12-8.54,8.12h-6.48v9.11h-5.41ZM360.13,20.82h-5.76v7.01h5.76c2.14,0,3.74-1.37,3.74-3.51s-1.6-3.51-3.74-3.51Z"/>
    <path class="cls-1" d="M388.62,15.75c7.7,0,13.3,5.49,13.3,13.15s-5.6,13.15-13.3,13.15-13.27-5.49-13.27-13.15,5.6-13.15,13.27-13.15ZM388.62,20.56c-4.69,0-7.7,3.58-7.7,8.35s3.01,8.35,7.7,8.35,7.74-3.62,7.74-8.35-3.05-8.35-7.74-8.35Z"/>
    <path class="cls-1" d="M423.93,41.6l-4.99-9.11h-3.96v9.11h-5.41v-25.43h11.9c5.3,0,8.54,3.47,8.54,8.2s-2.82,6.9-5.56,7.55l5.72,9.68h-6.22ZM420.65,20.82h-5.68v7.01h5.68c2.17,0,3.81-1.37,3.81-3.51s-1.64-3.51-3.81-3.51Z"/>
    <path class="cls-1" d="M443.38,41.6v-20.66h-7.43v-4.77h20.28v4.77h-7.4v20.66h-5.45Z"/>
    <path class="cls-1" d="M464.48,33.9c1.79,1.87,4.57,3.43,8.08,3.43,2.97,0,4.42-1.41,4.42-2.86,0-1.91-2.21-2.55-5.15-3.24-4.16-.95-9.49-2.1-9.49-7.78,0-4.23,3.66-7.66,9.64-7.66,4.04,0,7.4,1.22,9.91,3.55l-3.01,3.96c-2.06-1.91-4.8-2.78-7.28-2.78s-3.74,1.07-3.74,2.59c0,1.72,2.14,2.25,5.07,2.94,4.19.95,9.53,2.21,9.53,7.85,0,4.65-3.32,8.16-10.18,8.16-4.88,0-8.39-1.64-10.79-4.04l2.97-4.12Z"/>
    <path class="cls-1" d="M146.41,79.67c1.79,1.87,4.57,3.43,8.08,3.43,2.97,0,4.42-1.41,4.42-2.86,0-1.91-2.21-2.55-5.15-3.24-4.16-.95-9.49-2.1-9.49-7.78,0-4.23,3.66-7.66,9.64-7.66,4.04,0,7.4,1.22,9.91,3.55l-3.01,3.96c-2.06-1.91-4.8-2.78-7.28-2.78s-3.74,1.07-3.74,2.59c0,1.72,2.14,2.25,5.07,2.94,4.19.95,9.53,2.21,9.53,7.85,0,4.65-3.32,8.16-10.18,8.16-4.88,0-8.39-1.64-10.79-4.04l2.97-4.12Z"/>
    <path class="cls-1" d="M189.42,87.37l-1.6-4.38h-11.36l-1.6,4.38h-5.95l9.84-25.43h6.79l9.8,25.43h-5.91ZM182.14,66.63l-4.23,11.67h8.43l-4.2-11.67Z"/>
    <path class="cls-1" d="M201.52,87.37v-25.43h18v4.65h-12.58v5.53h12.31v4.65h-12.31v10.6h-5.41Z"/>
    <path class="cls-1" d="M227.11,87.37v-25.43h18v4.65h-12.58v5.53h12.31v4.65h-12.31v5.91h12.58v4.69h-18Z"/>
    <path class="cls-1" d="M259.03,87.37v-20.66h-7.43v-4.77h20.28v4.77h-7.4v20.66h-5.45Z"/>
    <path class="cls-1" d="M286.26,87.37v-10.41l-9.8-15.02h6.18l6.33,10.22,6.25-10.22h6.18l-9.72,15.02v10.41h-5.41Z"/>
    <path class="cls-1" d="M321.15,87.37v-25.43h11.9c5.53,0,8.54,3.74,8.54,8.2s-3.05,8.12-8.54,8.12h-6.48v9.11h-5.41ZM332.32,66.59h-5.76v7.01h5.76c2.14,0,3.74-1.37,3.74-3.51s-1.6-3.51-3.74-3.51Z"/>
    <path class="cls-1" d="M363.14,87.37l-4.99-9.11h-3.96v9.11h-5.41v-25.43h11.9c5.3,0,8.54,3.47,8.54,8.2s-2.82,6.9-5.56,7.55l5.72,9.68h-6.22ZM359.86,66.59h-5.68v7.01h5.68c2.17,0,3.81-1.37,3.81-3.51s-1.64-3.51-3.81-3.51Z"/>
    <path class="cls-1" d="M389.15,61.52c7.7,0,13.3,5.49,13.3,13.15s-5.6,13.15-13.3,13.15-13.27-5.49-13.27-13.15,5.6-13.15,13.27-13.15ZM389.15,66.32c-4.69,0-7.7,3.58-7.7,8.35s3.01,8.35,7.7,8.35,7.74-3.62,7.74-8.35-3.05-8.35-7.74-8.35Z"/>
    <path class="cls-1" d="M409.41,81.19c.99.95,2.29,1.83,4.04,1.83,2.4,0,3.96-1.6,3.96-4.08v-17h5.41v17.08c0,6.02-3.74,8.81-8.96,8.81-2.59,0-4.99-.69-6.82-2.48l2.36-4.16Z"/>
    <path class="cls-1" d="M431.68,87.37v-25.43h18v4.65h-12.58v5.53h12.31v4.65h-12.31v5.91h12.58v4.69h-18Z"/>
    <path class="cls-1" d="M456.51,74.67c0-7.82,5.91-13.15,13.34-13.15,5.8,0,9.04,3.05,10.83,6.21l-4.65,2.29c-1.07-2.06-3.36-3.7-6.18-3.7-4.42,0-7.78,3.55-7.78,8.35s3.35,8.35,7.78,8.35c2.82,0,5.11-1.6,6.18-3.7l4.65,2.25c-1.83,3.16-5.03,6.25-10.83,6.25-7.43,0-13.34-5.34-13.34-13.15Z"/>
    <path class="cls-1" d="M493.61,87.37v-20.66h-7.43v-4.77h20.28v4.77h-7.4v20.66h-5.45Z"/>
  </g>
  <g>
    <path class="cls-1" d="M52.72,35.21c-.11-.22-.23-.44-.34-.66l-.51.66c.06.12.12.23.18.35l.18.33.66-.35-.17-.32Z"/>
    <path class="cls-1" d="M79.53,0l-19.52,24.84L40.49,0,0,51.52l40.49,51.53,19.53-24.84,19.52,24.84,40.5-51.53L79.53,0ZM35.06,16.66c.77.94,1.18,1.85.93,3.29-.08.43-.19.87-.3,1.33-.22.86-.44,1.74-.46,2.69-.02.81.13,1.99.91,2.97.5.6,1.12.99,1.67,1.33l.25.15c4.74,2.95,7.53,8.85,8.34,13.75l-2.3,2.92c-.57-.99-1.11-2-1.52-3.07-.21-.53-.41-1.06-.6-1.61-.75-2.09-1.53-4.24-3.03-5.95-.95-1.09-2.15-1.93-3.3-2.74-.46-.32-.92-.65-1.37-.99-2.96-2.25-3.56-5.12-3.66-8.41l4.45-5.68ZM23.36,31.56c1.24,1.3,2.86,2.14,4.45,2.96.77.4,1.57.81,2.29,1.27,2.37,1.49,4.54,3.38,6.13,5.33.93,1.14,1.73,4.26.9,5.33-.36.47-1.06.47-2.09,0-1.19-.56-1.84-1.51-2.53-2.53-.23-.35-.47-.69-.74-1.04-1.82-2.37-4.24-3.9-6.84-4.27-2.7-.4-5.42.26-7.96,1.1l6.38-8.13ZM7.67,51.52l8.43-10.73c2.85-1.01,5.77-1.88,8.71-1.45,2.4.35,4.65,1.77,6.35,3.99.26.33.48.67.71,1,.72,1.06,1.46,2.15,2.84,2.79.66.32,1.2.44,1.63.44.69,0,1.12-.31,1.37-.64,1.09-1.41.21-4.91-.91-6.27-1.64-2.01-3.88-3.96-6.32-5.49-.75-.47-1.56-.89-2.35-1.3-1.55-.8-3.16-1.63-4.32-2.89l6.07-7.72c.2,3.07.99,5.89,3.93,8.11.45.35.92.67,1.39,1,1.12.78,2.27,1.59,3.17,2.62,1.4,1.6,2.16,3.69,2.89,5.71.2.54.4,1.09.6,1.63.47,1.2,1.09,2.34,1.73,3.43l-4.55,5.79,7.12,9.07c-.41.26-.9.44-1.45.54-3.51.61-9.66-1.88-15.44-10.86-.15-.23-.29-.46-.43-.69-.66-1.06-1.34-2.15-2.3-3.01-3.13-2.83-8.14-.7-10.74,1.42-2.21,1.8-3.89,4.49-4.84,7.72l-3.3-4.2ZM15.18,61.07l-3.63-4.61c.87-3.32,2.52-6.07,4.73-7.88,2.31-1.88,7-3.93,9.76-1.44.87.78,1.53,1.83,2.16,2.84.14.23.29.46.43.69,3.47,5.39,9.31,11.3,14.91,11.3.44,0,.87-.03,1.3-.11.68-.12,1.28-.35,1.79-.7l4.39,5.6c-2.74.03-5.31.61-7.54,1.12-2.71.61-5.06,1.15-6.59.48-2.31-.99-3.99-3.8-5.63-6.53-1.36-2.26-2.76-4.6-4.61-6.09l-.31-.25c-1.99-1.61-3.81-2.3-5.42-2.06-1.27.19-2.36.93-3.23,2.22-.78,1.14-1.27,2.4-1.76,3.61-.25.62-.48,1.21-.75,1.78ZM16.71,63.02c.54-.93.93-1.93,1.32-2.89.46-1.15.9-2.24,1.53-3.18.51-.75,1.06-1.16,1.7-1.25.94-.15,2.22.4,3.67,1.58l.31.25c1.54,1.24,2.78,3.31,4.09,5.5,1.82,3.03,3.69,6.16,6.68,7.44.81.35,1.7.49,2.63.49,1.61,0,3.4-.41,5.35-.85,2.74-.62,5.75-1.3,8.88-.99l2.01,2.56c-3.72-.05-7.32.37-10.98,1.24-.71.17-1.43.41-2.13.65-1.82.61-3.69,1.24-5.49.69-1.89-.58-3.49-2.34-4.68-3.8-.49-.61-.96-1.24-1.43-1.87-.8-1.07-1.62-2.17-2.55-3.17-1.42-1.51-3.53-3.49-5.48-3.08-1.81.38-2.34,2.2-2.83,3.99l-2.6-3.3ZM40.49,93.29l-5.14-6.53c.38.03.73.05,1.07.05,3.97,0,5.51-2.19,6.8-4.01,1.45-2.07,2.54-3.61,6.69-1.49l-9.42,11.99ZM50.39,80.7c-4.86-2.5-6.28-.47-7.79,1.66-1.41,2-3,4.24-7.91,3.55h0s-9.13-11.62-9.13-11.62c.38-.33.8-.5,1.24-.54,1.82-.16,3.96,2.12,5.86,4.12,1.44,1.52,2.8,2.95,3.98,3.32.28.09.54.13.78.13,1.22,0,2.16-.9,2.95-1.65.15-.14.29-.28.44-.41,1.35-1.21,2.83-1.92,4.54-2.15,1.64-.22,3.33-.08,4.97.05.9.08,1.82.15,2.74.17l-2.65,3.38ZM53.63,76.57c-1.09.02-2.19-.08-3.26-.16-1.68-.14-3.41-.29-5.12-.05-1.86.25-3.48,1.01-4.94,2.34-.15.14-.29.28-.45.42-.88.84-1.8,1.72-2.98,1.36-.99-.31-2.29-1.68-3.66-3.13-2.11-2.23-4.28-4.54-6.46-4.36-.59.05-1.14.29-1.64.7l-5.22-6.64c.05-.16.09-.32.14-.47.46-1.66.9-3.22,2.28-3.5,1.74-.37,4.02,2.07,4.77,2.86.9.96,1.71,2.04,2.49,3.1.47.63.95,1.27,1.45,1.89,1.25,1.55,2.95,3.41,5.04,4.04.57.17,1.12.25,1.69.25,1.44,0,2.86-.48,4.26-.94.72-.24,1.39-.47,2.07-.63,3.79-.91,7.53-1.31,11.4-1.21l.71.9-2.55,3.24ZM52.38,34.56c.11.22.23.44.34.66l.17.32-.66.35-.18-.33c-.06-.11-.12-.23-.18-.35l-3.65,4.64c-1.26-4.97-4.25-10.42-8.97-13.35l-.26-.16c-.44-.26-.85-.52-1.09-.82-.28-.35-.43-.87-.41-1.49.02-.7.2-1.42.39-2.19.12-.48.25-.98.33-1.5.44-2.54-.52-4.12-1.73-5.49l4.01-5.09,3.18,4.05h0c-.03.18-.07.35-.11.53-.12.57-.35,1.1-.59,1.66-.2.47-.41.95-.56,1.46-.96,3.38,1.25,5.09,3.38,6.74,1.23.95,2.5,1.94,3.14,3.23.46.92.73,1.94.99,2.94.11.41.22.83.35,1.24.38,1.29.99,2.47,1.58,3.62l.51-.66c-.54-1.05-1.04-2.07-1.37-3.18-.13-.4-.23-.81-.34-1.22-.27-1.02-.56-2.09-1.05-3.08-.72-1.44-2.06-2.48-3.35-3.48-2.12-1.64-3.95-3.05-3.13-5.93.14-.47.32-.91.52-1.37.23-.54.47-1.11.62-1.71l11.9,15.14-3.81,4.84ZM85.5,57.49v11.93h-11.93v-11.93h-11.93v-11.93h11.93v-11.93h11.93v11.93h11.93v11.93h-11.93Z"/>
  </g>
</svg>