<?xml version="1.0" encoding="UTF-8"?>
<svg id="Layer_1" data-name="Layer 1" xmlns="http://www.w3.org/2000/svg" viewBox="0 -20.38 288 288">
  <defs>
    <style>
      .cls-1 {
        fill: #eee3ce;
      }
    </style>
  </defs>
  <path class="cls-1" d="M126.49,84.48c-.27-.52-.56-1.05-.81-1.57l-1.23,1.57c.14.29.29.56.43.83l.43.8,1.59-.85-.42-.78Z"/>
  <path class="cls-1" d="M190.82,0l-46.83,59.6L97.14,0,0,123.61l97.14,123.63,46.85-59.6,46.83,59.6,97.18-123.63L190.82,0ZM84.12,39.98c1.84,2.26,2.82,4.45,2.22,7.9-.18,1.03-.45,2.08-.72,3.18-.52,2.06-1.05,4.18-1.1,6.46-.04,1.95.31,4.77,2.19,7.12,1.19,1.45,2.69,2.37,4.01,3.18l.6.36c11.37,7.09,18.06,21.23,20,32.98l-5.52,7.02c-1.37-2.37-2.66-4.81-3.65-7.36-.51-1.27-.98-2.55-1.45-3.85-1.81-5.01-3.67-10.18-7.27-14.27-2.28-2.62-5.15-4.63-7.92-6.56-1.1-.78-2.21-1.56-3.29-2.37-7.11-5.39-8.55-12.28-8.79-20.18l10.69-13.62ZM56.04,75.73c2.97,3.13,6.87,5.14,10.67,7.11,1.84.96,3.76,1.93,5.5,3.04,5.68,3.58,10.9,8.12,14.72,12.78,2.22,2.73,4.16,10.22,2.15,12.78-.87,1.14-2.55,1.12-5.01-.02-2.86-1.34-4.41-3.63-6.08-6.08-.56-.83-1.14-1.66-1.77-2.5-4.36-5.7-10.18-9.35-16.4-10.25-6.47-.96-13,.61-19.1,2.64l15.32-19.51ZM18.41,123.61l20.23-25.75c6.84-2.42,13.85-4.5,20.9-3.47,5.75.85,11.16,4.25,15.24,9.57.61.8,1.16,1.61,1.7,2.4,1.72,2.53,3.51,5.15,6.82,6.69,1.59.76,2.88,1.05,3.91,1.05,1.66,0,2.68-.74,3.29-1.54,2.62-3.38.51-11.77-2.19-15.04-3.92-4.83-9.31-9.49-15.15-13.18-1.79-1.14-3.74-2.13-5.64-3.11-3.72-1.92-7.58-3.91-10.36-6.94l14.56-18.52c.49,7.38,2.39,14.12,9.42,19.46,1.08.83,2.21,1.61,3.35,2.41,2.68,1.88,5.44,3.82,7.59,6.27,3.36,3.83,5.17,8.84,6.93,13.69.49,1.3.96,2.62,1.45,3.91,1.14,2.88,2.6,5.61,4.16,8.23l-10.92,13.89,17.09,21.75c-.99.63-2.15,1.07-3.47,1.3-8.43,1.46-23.18-4.5-37.05-26.06-.36-.54-.71-1.1-1.03-1.65-1.59-2.53-3.22-5.15-5.52-7.21-7.5-6.78-19.53-1.68-25.77,3.42-5.3,4.32-9.33,10.78-11.61,18.52l-7.92-10.07ZM36.42,146.52l-8.7-11.07c2.1-7.96,6.06-14.57,11.36-18.9,5.55-4.5,16.8-9.44,23.42-3.45,2.1,1.88,3.67,4.39,5.19,6.82.34.56.69,1.1,1.03,1.66,8.34,12.93,22.33,27.12,35.77,27.12,1.05,0,2.1-.07,3.13-.25,1.63-.29,3.07-.83,4.29-1.68l10.54,13.44c-6.58.07-12.73,1.46-18.1,2.69-6.51,1.46-12.13,2.75-15.82,1.16-5.53-2.37-9.58-9.11-13.51-15.66-3.25-5.42-6.62-11.03-11.07-14.61l-.74-.6c-4.77-3.85-9.15-5.52-13-4.94-3.06.45-5.66,2.24-7.76,5.33-1.86,2.73-3.06,5.75-4.23,8.66-.6,1.48-1.16,2.91-1.79,4.27ZM40.09,151.21c1.28-2.24,2.24-4.63,3.16-6.94,1.1-2.77,2.15-5.37,3.67-7.63,1.23-1.81,2.55-2.78,4.07-3,2.26-.36,5.32.96,8.81,3.78l.74.6c3.69,2.98,6.67,7.94,9.82,13.2,4.36,7.27,8.86,14.79,16.02,17.85,1.95.83,4.07,1.18,6.31,1.18,3.87,0,8.16-.98,12.84-2.04,6.56-1.48,13.8-3.13,21.3-2.39l4.83,6.15c-8.93-.11-17.56.89-26.35,2.98-1.7.42-3.44.99-5.12,1.56-4.36,1.46-8.86,2.97-13.16,1.66-4.54-1.39-8.37-5.61-11.23-9.11-1.18-1.46-2.31-2.98-3.44-4.48-1.92-2.57-3.89-5.21-6.11-7.59-3.42-3.63-8.48-8.37-13.15-7.4-4.34.92-5.61,5.28-6.78,9.57l-6.24-7.92ZM97.16,223.83l-12.33-15.68c.9.07,1.75.11,2.57.11,9.53,0,13.22-5.24,16.31-9.62,3.47-4.95,6.09-8.66,16.06-3.58l-22.6,28.77ZM120.9,193.63c-11.66-6-15.06-1.14-18.68,3.98-3.38,4.79-7.2,10.18-18.99,8.52v-.02l-21.9-27.87c.92-.8,1.92-1.21,2.97-1.3,4.38-.38,9.49,5.08,14.05,9.89,3.45,3.65,6.71,7.09,9.55,7.97.67.22,1.28.31,1.88.31,2.93,0,5.19-2.17,7.07-3.96.36-.34.71-.67,1.05-.99,3.24-2.91,6.8-4.61,10.89-5.15,3.92-.52,7.99-.2,11.92.13,2.17.18,4.36.36,6.56.4l-6.37,8.1ZM128.68,183.72c-2.62.04-5.24-.18-7.83-.38-4.03-.34-8.19-.69-12.3-.13-4.47.6-8.35,2.42-11.86,5.61-.36.33-.71.67-1.08,1.01-2.12,2.03-4.32,4.12-7.16,3.25-2.39-.74-5.5-4.03-8.79-7.5-5.06-5.35-10.27-10.9-15.5-10.45-1.41.13-2.73.69-3.94,1.68l-12.51-15.93c.11-.38.22-.76.33-1.14,1.1-3.98,2.15-7.72,5.46-8.41,4.18-.89,9.64,4.95,11.45,6.87,2.15,2.31,4.1,4.9,5.99,7.43,1.14,1.52,2.28,3.06,3.49,4.54,3,3.71,7.09,8.17,12.1,9.69,1.36.42,2.69.6,4.05.6,3.45,0,6.87-1.16,10.22-2.26,1.72-.58,3.35-1.12,4.97-1.52,9.1-2.19,18.06-3.15,27.36-2.91l1.7,2.17-6.13,7.78ZM125.67,82.91c.25.52.54,1.05.81,1.57l.42.78-1.59.85-.43-.8c-.14-.27-.29-.54-.43-.83l-8.75,11.14c-3.02-11.92-10.2-24.99-21.52-32.04l-.61-.38c-1.05-.63-2.04-1.25-2.62-1.97-.67-.83-1.03-2.1-.99-3.58.04-1.68.47-3.42.94-5.24.29-1.16.6-2.35.8-3.6,1.05-6.09-1.25-9.89-4.14-13.18l9.62-12.22,7.63,9.71v.02c-.07.42-.16.83-.25,1.25-.29,1.37-.83,2.64-1.41,3.98-.49,1.12-.98,2.28-1.34,3.51-2.31,8.1,3,12.21,8.12,16.17,2.95,2.28,6,4.65,7.52,7.74,1.1,2.21,1.75,4.67,2.39,7.05.27.99.52,1.99.83,2.98.92,3.09,2.37,5.93,3.8,8.68l1.23-1.57c-1.3-2.51-2.5-4.95-3.29-7.63-.31-.96-.56-1.95-.81-2.93-.65-2.46-1.34-5.01-2.51-7.4-1.72-3.45-4.94-5.95-8.03-8.35-5.08-3.92-9.48-7.32-7.5-14.23.33-1.14.78-2.19,1.25-3.29.56-1.3,1.14-2.66,1.48-4.1l28.55,36.33-9.13,11.61ZM205.15,137.93v28.62h-28.62v-28.62h-28.62v-28.62h28.62v-28.62h28.62v28.62h28.62v28.62h-28.62Z"/>
</svg>